name kv06_filtered_grf.mot
datacolumns 37
datarows 15
range 0.002500 0.009500
endheader
time	1_ground_force_vx	1_ground_force_vy	1_ground_force_vz	1_ground_force_px	1_ground_force_py	1_ground_force_pz	1_ground_torque_x	1_ground_torque_y	1_ground_torque_z	2_ground_force_vx	2_ground_force_vy	2_ground_force_vz	2_ground_force_px	2_ground_force_py	2_ground_force_pz	2_ground_torque_x	2_ground_torque_y	2_ground_torque_z	3_ground_force_vx	3_ground_force_vy	3_ground_force_vz	3_ground_force_px	3_ground_force_py	3_ground_force_pz	3_ground_torque_x	3_ground_torque_y	3_ground_torque_z	4_ground_force_vx	4_ground_force_vy	4_ground_force_vz	4_ground_force_px	4_ground_force_py	4_ground_force_pz	4_ground_torque_x	4_ground_torque_y	4_ground_torque_z
            0.002500	            0.000014	            0.000342	            0.000806	            0.290491	            0.000000	            1.819947	           -0.000320	            0.000131	           -0.000051	            0.000000	            0.000000	            0.000000	           -0.164376	            0.000000	            0.229874	            0.000000	           -0.000000	            0.000000	           30.770257	           20.116699	          197.073565	            0.378095	            1.022267	            1.052392	           -0.531723	           -0.347625	           -3.405513	          -44.564187	           58.126574	          205.036361	           -0.420300	            1.022264	            1.049214	           -0.690165	            0.900205	            3.175394
            0.003000	           -0.000024	            0.000450	            0.001131	            0.290491	            0.000000	            1.819947	           -0.000422	            0.000150	           -0.000062	            0.000000	            0.000000	            0.000000	           -0.164376	            0.000000	            0.229874	            0.000000	           -0.000000	            0.000000	           31.168734	           20.281592	          199.337430	            0.378095	            1.022267	            1.052392	           -0.540164	           -0.351487	           -3.454583	          -45.442133	           58.683302	          207.521402	           -0.420300	            1.022264	            1.049214	           -0.702096	            0.906677	            3.206275
            0.003500	           -0.000064	            0.000562	            0.001471	            0.290491	            0.000000	            1.819947	           -0.000528	            0.000170	           -0.000073	            0.000000	            0.000000	            0.000000	           -0.164376	            0.000000	            0.229874	            0.000000	           -0.000000	            0.000000	           31.582476	           20.453542	          201.652830	            0.378082	            1.022265	            1.052426	           -0.548836	           -0.355439	           -3.504296	          -46.331236	           59.251902	          210.061573	           -0.420285	            1.022269	            1.049234	           -0.714187	            0.913356	            3.238057
            0.004000	           -0.000107	            0.000677	            0.001822	            0.290491	            0.000000	            1.819947	           -0.000637	            0.000189	           -0.000084	            0.000000	            0.000000	            0.000000	           -0.164376	            0.000000	            0.229874	            0.000000	           -0.000000	            0.000000	           32.011245	           20.632615	          204.017127	            0.378069	            1.022263	            1.052460	           -0.557729	           -0.359480	           -3.554570	          -47.230273	           59.831483	          212.653146	           -0.420270	            1.022275	            1.049254	           -0.726424	            0.920236	            3.270704
            0.004500	           -0.000152	            0.000793	            0.002181	            0.290491	            0.000000	            1.819947	           -0.000748	            0.000207	           -0.000094	            0.000000	            0.000000	            0.000000	           -0.164376	            0.000000	            0.229874	            0.000000	           -0.000000	            0.000000	           32.454759	           20.818864	          206.427702	            0.378056	            1.022262	            1.052494	           -0.566833	           -0.363608	           -3.605329	          -48.138104	           60.421139	          215.292344	           -0.420254	            1.022281	            1.049274	           -0.738794	            0.927307	            3.304175
            0.005000	           -0.000199	            0.000911	            0.002545	            0.290491	            0.000000	            1.819947	           -0.000860	            0.000225	           -0.000105	            0.000000	            0.000000	            0.000000	           -0.164376	            0.000000	            0.229874	            0.000000	           -0.000000	            0.000000	           32.912691	           21.012324	          208.881966	            0.378044	            1.022260	            1.052528	           -0.576139	           -0.367822	           -3.656496	          -49.053687	           61.019951	          217.975364	           -0.420239	            1.022287	            1.049294	           -0.751287	            0.934558	            3.338426
            0.005500	           -0.000248	            0.001027	            0.002911	            0.290491	            0.000000	            1.819947	           -0.000970	            0.000242	           -0.000115	            0.000000	            0.000000	            0.000000	           -0.164376	            0.000000	            0.229874	            0.000000	           -0.000000	            0.000000	           33.383346	           21.211068	          211.377783	            0.378031	            1.022257	            1.052563	           -0.585614	           -0.372087	           -3.708011	          -49.976990	           61.627093	          220.698167	           -0.420224	            1.022293	            1.049313	           -0.763907	            0.941981	            3.373409
            0.006000	           -0.000298	            0.001142	            0.003274	            0.290491	            0.000000	            1.819947	           -0.001079	            0.000257	           -0.000125	            0.000000	            0.000000	            0.000000	           -0.164376	            0.000000	            0.229874	            0.000000	           -0.000000	            0.000000	           33.867607	           21.416999	          213.912279	            0.378018	            1.022255	            1.052598	           -0.595269	           -0.376433	           -3.759800	          -50.906295	           62.241532	          223.457193	           -0.420209	            1.022300	            1.049333	           -0.776630	            0.949561	            3.409078
            0.006500	           -0.000349	            0.001253	            0.003629	            0.290491	            0.000000	            1.819947	           -0.001185	            0.000270	           -0.000135	            0.000000	            0.000000	            0.000000	           -0.164376	            0.000000	            0.229874	            0.000000	           -0.000000	            0.000000	           34.365027	           21.630098	          216.483046	            0.378005	            1.022252	            1.052634	           -0.605095	           -0.380860	           -3.811804	          -51.840884	           62.862336	          226.248694	           -0.420194	            1.022307	            1.049353	           -0.789448	            0.957286	            3.445383
            0.007000	           -0.000400	            0.001359	            0.003972	            0.290491	            0.000000	            1.819947	           -0.001286	            0.000282	           -0.000143	            0.000000	            0.000000	            0.000000	           -0.164376	            0.000000	            0.229874	            0.000000	           -0.000000	            0.000000	           34.875122	           21.850327	          219.087762	            0.377992	            1.022249	            1.052669	           -0.615079	           -0.385366	           -3.863968	          -52.780155	           63.488575	          229.068979	           -0.420178	            1.022314	            1.049373	           -0.802356	            0.965143	            3.482270
            0.007500	           -0.000451	            0.001458	            0.004298	            0.290491	            0.000000	            1.819947	           -0.001380	            0.000291	           -0.000151	           -0.000000	            0.000000	            0.000000	           -0.164376	            0.000000	            0.229874	            0.000000	           -0.000000	            0.000000	           35.397380	           22.077625	          221.724192	            0.377979	            1.022247	            1.052704	           -0.625213	           -0.389950	           -3.916244	          -53.723621	           64.119325	          231.914432	           -0.420163	            1.022321	            1.049393	           -0.815345	            0.973117	            3.519686
            0.008000	           -0.000500	            0.001548	            0.004602	            0.290491	            0.000000	            1.819947	           -0.001467	            0.000298	           -0.000157	           -0.000000	            0.000000	            0.000000	           -0.164376	            0.000000	            0.229874	            0.000000	           -0.000000	            0.000000	           35.927843	           22.307704	          224.391167	            0.377966	            1.022242	            1.052743	           -0.635424	           -0.394537	           -3.968607	          -54.673061	           64.753484	          234.781079	           -0.420148	            1.022330	            1.049413	           -0.828444	            0.981190	            3.557566
            0.008500	           -0.000549	            0.001629	            0.004879	            0.290491	            0.000000	            1.819947	           -0.001543	            0.000302	           -0.000162	           -0.000000	            0.000000	            0.000000	           -0.164376	            0.000000	            0.229874	            0.000000	           -0.000000	            0.000000	           36.469286	           22.544566	          227.085710	            0.377952	            1.022238	            1.052781	           -0.645761	           -0.399196	           -4.021004	          -55.626124	           65.390330	          237.665933	           -0.420134	            1.022338	            1.049433	           -0.841617	            0.989348	            3.595859
            0.009000	           -0.000594	            0.001697	            0.005122	            0.290491	            0.000000	            1.819947	           -0.001609	            0.000302	           -0.000166	           -0.000000	            0.000000	            0.000000	           -0.164376	            0.000000	            0.229874	            0.000000	           -0.000000	            0.000000	           37.021125	           22.788082	          229.805893	            0.377939	            1.022233	            1.052819	           -0.656215	           -0.403928	           -4.073404	          -56.582664	           66.028973	          240.565697	           -0.420119	            1.022347	            1.049453	           -0.854860	            0.997577	            3.634506
            0.009500	           -0.000637	            0.001751	            0.005327	            0.290491	            0.000000	            1.819947	           -0.001661	            0.000299	           -0.000168	           -0.000000	            0.000000	            0.000000	           -0.164376	            0.000000	            0.229874	            0.000000	           -0.000000	            0.000000	           37.582764	           23.038099	          232.549889	            0.377926	            1.022229	            1.052857	           -0.666775	           -0.408730	           -4.125784	          -57.542640	           66.668536	          243.477203	           -0.420104	            1.022356	            1.049473	           -0.868171	            1.005858	            3.673448
